<?xml version="1.0" encoding="UTF-8" standalone="no"?>
<!-- Created with Inkscape (http://www.inkscape.org/) -->

<svg
   width="2000"
   height="1000"
   viewBox="0 0 2000 1000"
   version="1.1"
   id="svg5"
   inkscape:version="1.2.2 (b0a84865, 2022-12-01)"
   sodipodi:docname="world.svg"
   xmlns:inkscape="http://www.inkscape.org/namespaces/inkscape"
   xmlns:sodipodi="http://sodipodi.sourceforge.net/DTD/sodipodi-0.dtd"
   xmlns="http://www.w3.org/2000/svg"
   xmlns:svg="http://www.w3.org/2000/svg">
  <sodipodi:namedview
     id="namedview7"
     pagecolor="#505050"
     bordercolor="#ffffff"
     borderopacity="1"
     inkscape:showpageshadow="0"
     inkscape:pageopacity="0"
     inkscape:pagecheckerboard="false"
     inkscape:deskcolor="#505050"
     inkscape:document-units="px"
     showgrid="true"
     showborder="true"
     inkscape:zoom="1.3395665"
     inkscape:cx="3077.8614"
     inkscape:cy="668.49985"
     inkscape:window-width="1800"
     inkscape:window-height="1097"
     inkscape:window-x="0"
     inkscape:window-y="44"
     inkscape:window-maximized="0"
     inkscape:current-layer="layer2">
    <inkscape:grid
       type="xygrid"
       id="grid113"
       originx="0"
       originy="0"
       spacingx="2"
       spacingy="2" />
  </sodipodi:namedview>
  <defs
     id="defs2" />
  <g
     inkscape:groupmode="layer"
     id="layer3"
     inkscape:label="Layer 3">
    <path
       id="wall"
       style="fill:#4dac00;fill-opacity:0.24234;stroke-width:4.06275"
       d="m 2250,850 100,100 h 450 l 300,-300 h 500 l 150,250 h 800 l 150,-250 h 450 l 150,300 H 7350 V 152 l -650,-2 v 550 l 50,50 h 350 L 7200,650 V 400 l -50,-50 h -200 l -50,50 v 200 h -50 V 350 l 50,-50 h 300 l 50,50 V 700 L 7150,800 H 6450 L 6300,650 V 100 H 5300 L 5150,400 H 4700 L 4560,150 H 3750 L 3600,300 H 2850 V 650 L 2700,800 H 2400 V 600 h 300 V 350 H 2400 L 2250,450 V 700 H 1550 L 1000,500 1550,300 h 700 V 150 H 1000 L 500,350 H 0 v 300 h 500 l 500,200"
       sodipodi:nodetypes="ccccccccccccccccccccccccccccccccccccccccccccccccccccccccccc"
       inkscape:label="wall" />
  </g>
  <g
     inkscape:groupmode="layer"
     id="layer2"
     inkscape:label="Layer 2"
     style="display:inline">
    <ellipse
       style="fill:#030063;fill-opacity:1;stroke-width:0.679358"
       id="path3564"
       cx="5700"
       cy="410"
       rx="50.229271"
       ry="10.000004" />
    <rect
       style="fill:#ac005e;fill-opacity:1;stroke-width:0.756002"
       id="rect2512"
       width="37.598965"
       height="37.598965"
       x="2186.3022"
       y="-1568.1338"
       transform="matrix(0.69171406,0.72217149,-0.69171406,0.72217149,0,0)" />
    <rect
       style="fill:#ac005e;fill-opacity:1;stroke-width:0.756002"
       id="rect3576"
       width="37.598965"
       height="37.598965"
       x="5435.7817"
       y="-4856.3198"
       transform="matrix(0.69171406,0.72217149,-0.69171406,0.72217149,0,0)" />
    <rect
       style="fill:#030063;fill-opacity:1;stroke-width:0.658156"
       id="rect3717"
       width="49.999958"
       height="150"
       x="3100"
       y="300" />
    <circle
       style="fill:#4dac00;fill-opacity:0.24234;stroke-width:3.35116"
       id="path4056"
       cx="3920"
       cy="590"
       r="250" />
    <ellipse
       style="fill:#08005f;fill-opacity:1;stroke-width:1.10131"
       id="path4116"
       cx="5700"
       cy="405"
       rx="30"
       ry="15" />
    <circle
       style="fill:#4dac00;fill-opacity:0.24234;stroke-width:3.35116"
       id="circle4850"
       cx="4370"
       cy="440"
       r="250" />
  </g>
</svg>
