<?xml version="1.0" encoding="UTF-8" standalone="no"?>
<!-- Created with Inkscape (http://www.inkscape.org/) -->

<svg
   width="2000"
   height="1000"
   viewBox="0 0 2000 1000"
   version="1.1"
   id="svg5"
   inkscape:version="1.2.2 (b0a84865, 2022-12-01)"
   sodipodi:docname="world.svg"
   xmlns:inkscape="http://www.inkscape.org/namespaces/inkscape"
   xmlns:sodipodi="http://sodipodi.sourceforge.net/DTD/sodipodi-0.dtd"
   xmlns="http://www.w3.org/2000/svg"
   xmlns:svg="http://www.w3.org/2000/svg">
  <sodipodi:namedview
     id="namedview7"
     pagecolor="#505050"
     bordercolor="#ffffff"
     borderopacity="1"
     inkscape:showpageshadow="0"
     inkscape:pageopacity="0"
     inkscape:pagecheckerboard="false"
     inkscape:deskcolor="#505050"
     inkscape:document-units="px"
     showgrid="true"
     showborder="true"
     inkscape:zoom="0.52257469"
     inkscape:cx="2509.6891"
     inkscape:cy="1296.4654"
     inkscape:window-width="3840"
     inkscape:window-height="2107"
     inkscape:window-x="0"
     inkscape:window-y="25"
     inkscape:window-maximized="0"
     inkscape:current-layer="layer3">
    <inkscape:grid
       type="xygrid"
       id="grid113"
       originx="0"
       originy="0"
       spacingx="2"
       spacingy="2" />
  </sodipodi:namedview>
  <defs
     id="defs2" />
  <g
     inkscape:groupmode="layer"
     id="layer3"
     inkscape:label="Layer 3">
    <path
       id="wall"
       style="fill:#4dac00;fill-opacity:1;stroke-width:4.06275"
       d="m 2025,850 100,100 h 450 l 300,-300 h 500 l 150,250 h 800 l 150,-250 h 450 l 150,300 H 7125 V 152 l -650,-2 v 550 l 50,50 h 350 L 6975,650 V 400 l -50,-50 h -200 l -50,50 v 200 h -50 V 350 l 50,-50 h 300 l 50,50 V 700 L 6925,800 H 6225 L 6075,650 V 100 H 5075 L 4925,400 H 4475 L 4335,150 H 3525 L 3375,300 H 2625 V 650 L 2475,800 H 2175 V 600 h 300 V 350 H 2175 L 2025,450 V 700 H 1325 L 775,500 1325,300 h 700 V 150 H 775 L 275,350 h -500 v 300 h 500 l 500,200"
       sodipodi:nodetypes="ccccccccccccccccccccccccccccccccccccccccccccccccccccccccccc"
       inkscape:label="wall" />
  </g>
  <g
     inkscape:groupmode="layer"
     id="layer2"
     inkscape:label="Layer 2"
     style="display:inline">
    <ellipse
       style="fill:#030063;fill-opacity:1;stroke-width:0.755652"
       id="path3564"
       cx="6028.7803"
       cy="443.84"
       rx="40.458538"
       ry="15.36" />
    <ellipse
       style="fill:#030063;fill-opacity:1;stroke-width:0.755652"
       id="path2618"
       cx="3362.1951"
       cy="440"
       rx="18.390244"
       ry="19.200001" />
    <rect
       style="fill:#ac005e;fill-opacity:1;stroke-width:0.756002"
       id="rect2512"
       width="37.598965"
       height="37.598965"
       x="2211.03"
       y="-1639.3556"
       transform="matrix(0.69171406,0.72217149,-0.69171406,0.72217149,0,0)" />
    <rect
       style="fill:#ac005e;fill-opacity:1;stroke-width:0.756002"
       id="rect3576"
       width="37.598965"
       height="37.598965"
       x="5435.7817"
       y="-4856.3198"
       transform="matrix(0.69171406,0.72217149,-0.69171406,0.72217149,0,0)" />
    <rect
       style="fill:#030063;fill-opacity:1;stroke-width:0.699599"
       id="rect3717"
       width="36.780487"
       height="230.39999"
       x="4263.3169"
       y="113.6" />
  </g>
</svg>
